Coordinates
version=1
nRows=16
nColumns=22
inDegrees=yes

Units are S.I. units (second, meters, Newtons, ...)
If the header above contains a line with 'inDegrees', this indicates whether rotational values are in degrees (yes) or radians (no).

endheader
time	pelvis_tilt	pelvis_list	pelvis_rotation	pelvis_tx	pelvis_ty	pelvis_tz	hip_flexion_r	hip_adduction_r	hip_rotation_r	knee_angle_r	ankle_angle_r	subtalar_angle_r	hip_flexion_l	hip_adduction_l	hip_rotation_l	knee_angle_l	ankle_angle_l	subtalar_angle_l	lumbar_extension	lumbar_bending	lumbar_rotation
      0.01000000	      4.84071945	      3.02251535	    177.56862346	      0.09519818	      0.95384650	      1.08712704	      7.71592908	      2.85376740	     -2.47811731	    -11.87348413	      9.84145314	     -1.91563824	      7.90574742	     -6.04321327	     -5.68219095	    -14.29331195	     11.40878820	     -2.38647590	     -1.53162997	      1.32517898	      1.20267560
      0.02000000	      4.85976700	      2.96174941	    177.60416432	      0.09539295	      0.95387605	      1.08723493	      7.75922315	      2.78125083	     -2.50790208	    -11.88997164	      9.84093500	     -2.07972767	      7.91467130	     -5.97539811	     -5.72232651	    -14.22414899	     11.35899416	     -2.27574888	     -1.51846234	      1.25938326	      1.18217049
      0.03000000	      4.88089150	      2.89668145	    177.64748352	      0.09561508	      0.95392491	      1.08737429	      7.79003519	      2.70039262	     -2.54372974	    -11.87526641	      9.81360108	     -2.10233482	      7.92866160	     -5.90371815	     -5.78572387	    -14.15223250	     11.29219255	     -2.23906084	     -1.50526275	      1.18926312	      1.16608414
      0.04000000	      4.90875116	      2.81455889	    177.68847264	      0.09585032	      0.95397472	      1.08752565	      7.83513979	      2.60008869	     -2.57802646	    -11.87177125	      9.81246650	     -2.11333160	      7.93458806	     -5.81163788	     -5.85462353	    -14.04978554	     11.20375051	     -2.19580741	     -1.48399804	      1.10218946	      1.14616942
      0.05000000	      4.93709107	      2.73484030	    177.72306703	      0.09608685	      0.95402046	      1.08765570	      7.88124650	      2.50392197	     -2.60481088	    -11.87004363	      9.81779449	     -2.11444446	      7.93985369	     -5.72380573	     -5.92531890	    -13.94791312	     11.11860510	     -2.15375918	     -1.46312489	      1.01626778	      1.12938102
      0.06000000	      4.96318112	      2.68967427	    177.75456613	      0.09627982	      0.95405313	      1.08775598	      7.90421579	      2.44790854	     -2.62832949	    -11.83770694	      9.80974100	     -2.11110104	      7.94733162	     -5.67565158	     -5.99422903	    -13.86474153	     11.08200484	     -2.13514918	     -1.44102906	      0.97047657	      1.10142567
      0.07000000	      4.98209089	      2.61693606	    177.76512632	      0.09649155	      0.95408467	      1.08781753	      7.94556744	      2.36343501	     -2.63816276	    -11.84817656	      9.81729858	     -2.10173686	      7.95361810	     -5.59606529	     -6.03812506	    -13.79998984	     10.98703583	     -2.08890208	     -1.43208665	      0.88889726	      1.11771801
      0.08000000	      4.99953658	      2.58405080	    177.76844625	      0.09664511	      0.95409508	      1.08781221	      7.96206514	      2.32823801	     -2.64334224	    -11.82525217	      9.81964818	     -2.09048573	      7.96434768	     -5.56513235	     -6.08027633	    -13.75932256	     10.95584002	     -2.06576170	     -1.41943840	      0.84721049	      1.12744339
      0.09000000	      5.01021769	      2.57431230	    177.76817765	      0.09676976	      0.95409644	      1.08778113	      7.96501860	      2.31922101	     -2.65335062	    -11.79468533	      9.81885967	     -2.08645471	      7.97507005	     -5.55943216	     -6.09937289	    -13.74085235	     10.94759691	     -2.05891642	     -1.41364073	      0.83158263	      1.14197235
      0.10000000	      5.01255460	      2.57270175	    177.76330627	      0.09689716	      0.95409772	      1.08772577	      7.96999522	      2.32113800	     -2.65572344	    -11.78536405	      9.81853239	     -2.08576079	      7.98189567	     -5.56194172	     -6.10172183	    -13.73469040	     10.94642708	     -2.05794386	     -1.42231079	      0.82393775	      1.14364763
      0.11000000	      5.02448941	      2.56599103	    177.74562228	      0.09695543	      0.95408802	      1.08763952	      7.96674860	      2.31951881	     -2.66260291	    -11.74630693	      9.80866222	     -2.08039954	      7.99363490	     -5.56226151	     -6.12272158	    -13.73133142	     10.93408326	     -2.05001830	     -1.40657438	      0.80726394	      1.17571664
      0.12000000	      5.03720197	      2.56821324	    177.71673442	      0.09703992	      0.95407423	      1.08753284	      7.97553205	      2.33051369	     -2.63809476	    -11.72396913	      9.78650035	     -2.06991563	      8.00800682	     -5.57465151	     -6.15726200	    -13.73165447	     10.92491164	     -2.03846912	     -1.39857395	      0.80328627	      1.21028406
      0.13000000	      5.03837695	      2.56833988	    177.70239966	      0.09711284	      0.95406778	      1.08744317	      7.97914559	      2.33574440	     -2.63978294	    -11.71848439	      9.78648279	     -2.06935803	      8.01118321	     -5.58030739	     -6.15655031	    -13.73137454	     10.92568474	     -2.03819076	     -1.40378840	      0.79541272	      1.20850105
      0.14000000	      5.04979185	      2.58009908	    177.66978038	      0.09716763	      0.95404942	      1.08732670	      7.98516907	      2.35714710	     -2.62465469	    -11.69693652	      9.77389532	     -2.06271751	      8.02607746	     -5.60407553	     -6.18342431	    -13.74334979	     10.93430425	     -2.03501166	     -1.39452914	      0.80185381	      1.25079109
      0.15000000	      5.05961888	      2.58965741	    177.63899357	      0.09722778	      0.95403287	      1.08721356	      8.00112678	      2.37627906	     -2.59258768	    -11.69772947	      9.75586560	     -2.05594621	      8.03914864	     -5.62538490	     -6.21869588	    -13.75194380	     10.94624165	     -2.03105203	     -1.38903588	      0.80806087	      1.25487907
      0.16000000	      5.06104774	      2.58929464	    177.62445658	      0.09727034	      0.95402802	      1.08713076	      8.00379644	      2.38057116	     -2.59565070	    -11.69234651	      9.75634083	     -2.05573735	      8.04086566	     -5.63047145	     -6.21705971	    -13.75369951	     10.94641927	     -2.03077131	     -1.39175487	      0.80037249	      1.25381026
